REM DIRINDEX 1\2\6,1\2\7,1\2\8,1\2\9,1\3\10,1\3\11,1\4\12,1\4\13,1\4\14,1\5\15,1\5\16,1\5\17
REM DIRNAME cjc020,folder01,folder02,folder03,folder04,folder05,folder06,folder07,folder08,folder09,folder10,folder11,folder12,folder13,folder14,folder15,folder16
TITLE ""
FILE "1900_2_sec14_1317_1332.mp3" MP3
  TRACK 01 AUDIO
    TITLE "0:"
    INDEX 01 00:00:00
  TRACK 02 AUDIO
    TITLE "13:cjc020_4774"
    INDEX 01 00:00:17
  TRACK 03 AUDIO
    TITLE "0:"
    INDEX 01 00:01:38
  TRACK 04 AUDIO
    TITLE "14:cjc020_4775"
    INDEX 01 00:01:40
  TRACK 05 AUDIO
    TITLE "0:"
    INDEX 01 00:04:11
  TRACK 06 AUDIO
    TITLE "13:cjc020_4776"
    INDEX 01 00:04:66
  TRACK 07 AUDIO
    TITLE "0:"
    INDEX 01 00:06:16
  TRACK 08 AUDIO
    TITLE "14:cjc020_4777"
    INDEX 01 00:06:18
  TRACK 09 AUDIO
    TITLE "0:"
    INDEX 01 00:07:37
  TRACK 10 AUDIO
    TITLE "13:cjc020_4778"
    INDEX 01 00:08:15
  TRACK 11 AUDIO
    TITLE "0:"
    INDEX 01 00:09:28
  TRACK 12 AUDIO
    TITLE "14:cjc020_4779"
    INDEX 01 00:09:36
  TRACK 13 AUDIO
    TITLE "0:"
    INDEX 01 00:10:55
  TRACK 14 AUDIO
    TITLE "13:cjc020_4780"
    INDEX 01 00:11:33
  TRACK 15 AUDIO
    TITLE "0:"
    INDEX 01 00:12:46
  TRACK 16 AUDIO
    TITLE "14:cjc020_4781"
    INDEX 01 00:12:52
  TRACK 17 AUDIO
    TITLE "0:"
    INDEX 01 00:15:05
  TRACK 18 AUDIO
    TITLE "13:cjc020_4782"
    INDEX 01 00:15:64
  TRACK 19 AUDIO
    TITLE "0:"
    INDEX 01 00:17:02
  TRACK 20 AUDIO
    TITLE "14:cjc020_4783"
    INDEX 01 00:17:04
  TRACK 21 AUDIO
    TITLE "0:"
    INDEX 01 00:19:62
  TRACK 22 AUDIO
    TITLE "13:cjc020_4784"
    INDEX 01 00:20:39
  TRACK 23 AUDIO
    TITLE "0:"
    INDEX 01 00:21:47
  TRACK 24 AUDIO
    TITLE "14:cjc020_4785"
    INDEX 01 00:21:49
  TRACK 25 AUDIO
    TITLE "0:"
    INDEX 01 00:24:16
  TRACK 26 AUDIO
    TITLE "13:cjc020_4786"
    INDEX 01 00:24:72
  TRACK 27 AUDIO
    TITLE "0:"
    INDEX 01 00:26:13
  TRACK 28 AUDIO
    TITLE "14:cjc020_4787"
    INDEX 01 00:26:18
  TRACK 29 AUDIO
    TITLE "0:"
    INDEX 01 00:27:43
  TRACK 30 AUDIO
    TITLE "13:cjc020_4788"
    INDEX 01 00:28:23
  TRACK 31 AUDIO
    TITLE "0:"
    INDEX 01 00:29:17
  TRACK 32 AUDIO
    TITLE "14:cjc020_4789"
    INDEX 01 00:29:21
  TRACK 33 AUDIO
    TITLE "0:"
    INDEX 01 00:32:01
  TRACK 34 AUDIO
    TITLE "13:cjc020_4790"
    INDEX 01 00:32:58
  TRACK 35 AUDIO
    TITLE "0:"
    INDEX 01 00:34:02
  TRACK 36 AUDIO
    TITLE "14:cjc020_4791"
    INDEX 01 00:34:08
  TRACK 37 AUDIO
    TITLE "0:"
    INDEX 01 00:37:34
  TRACK 38 AUDIO
    TITLE "13:cjc020_4792"
    INDEX 01 00:38:10
  TRACK 39 AUDIO
    TITLE "0:"
    INDEX 01 00:39:31
  TRACK 40 AUDIO
    TITLE "14:cjc020_4793"
    INDEX 01 00:39:35
  TRACK 41 AUDIO
    TITLE "0:"
    INDEX 01 00:42:04
  TRACK 42 AUDIO
    TITLE "13:cjc020_4794"
    INDEX 01 00:42:59
  TRACK 43 AUDIO
    TITLE "0:"
    INDEX 01 00:44:07
  TRACK 44 AUDIO
    TITLE "14:cjc020_4795"
    INDEX 01 00:44:14
  TRACK 45 AUDIO
    TITLE "0:"
    INDEX 01 00:46:62
  TRACK 46 AUDIO
    TITLE "13:cjc020_4796"
    INDEX 01 00:47:42
  TRACK 47 AUDIO
    TITLE "0:"
    INDEX 01 00:48:55
  TRACK 48 AUDIO
    TITLE "14:cjc020_4797"
    INDEX 01 00:48:57
  TRACK 49 AUDIO
    TITLE "0:"
    INDEX 01 00:51:67
  TRACK 50 AUDIO
    TITLE "13:cjc020_4798"
    INDEX 01 00:52:47
  TRACK 51 AUDIO
    TITLE "0:"
    INDEX 01 00:53:74
  TRACK 52 AUDIO
    TITLE "14:cjc020_4799"
    INDEX 01 00:54:03
  TRACK 53 AUDIO
    TITLE "0:"
    INDEX 01 00:55:40
  TRACK 54 AUDIO
    TITLE "13:cjc020_4800"
    INDEX 01 00:56:20
  TRACK 55 AUDIO
    TITLE "0:"
    INDEX 01 00:57:31
  TRACK 56 AUDIO
    TITLE "14:cjc020_4801"
    INDEX 01 00:57:39
  TRACK 57 AUDIO
    TITLE "0:"
    INDEX 01 00:58:58
  TRACK 58 AUDIO
    TITLE "13:cjc020_4802"
    INDEX 01 00:59:39
  TRACK 59 AUDIO
    TITLE "0:"
    INDEX 01 01:00:55
  TRACK 60 AUDIO
    TITLE "14:cjc020_4803"
    INDEX 01 01:00:59
  TRACK 61 AUDIO
    TITLE "0:"
    INDEX 01 01:03:37
  TRACK 62 AUDIO
    TITLE "13:cjc020_4804"
    INDEX 01 01:04:17
  TRACK 63 AUDIO
    TITLE "0:"
    INDEX 01 01:05:34
  TRACK 64 AUDIO
    TITLE "14:cjc020_4805"
    INDEX 01 01:05:38
  TRACK 65 AUDIO
    TITLE "0:"
    INDEX 01 01:08:38
